<?xml version="1.0" encoding="UTF-8" standalone="no"?>
<svg
   version="1.1"
   viewBox="0 0 116.83 127.86"
   id="svg171"
   sodipodi:docname="prinz-model_circuit-diagram_fig-1b-from-Prinz-2004_grey.svg"
   inkscape:version="1.2.2 (b0a8486541, 2022-12-01)"
   xmlns:inkscape="http://www.inkscape.org/namespaces/inkscape"
   xmlns:sodipodi="http://sodipodi.sourceforge.net/DTD/sodipodi-0.dtd"
   xmlns="http://www.w3.org/2000/svg"
   xmlns:svg="http://www.w3.org/2000/svg">
  <sodipodi:namedview
     id="namedview173"
     pagecolor="#ffffff"
     bordercolor="#666666"
     borderopacity="1.0"
     inkscape:showpageshadow="2"
     inkscape:pageopacity="0.0"
     inkscape:pagecheckerboard="0"
     inkscape:deskcolor="#d1d1d1"
     showgrid="false"
     inkscape:zoom="6.6635382"
     inkscape:cx="45.171197"
     inkscape:cy="63.93"
     inkscape:window-width="1920"
     inkscape:window-height="1051"
     inkscape:window-x="0"
     inkscape:window-y="0"
     inkscape:window-maximized="1"
     inkscape:current-layer="svg171" />
  <defs
     id="defs83">
    <clipPath
       id="g">
      <path
         d="m78.357 745.72v-106.86h186.37v106.86"
         id="path2" />
    </clipPath>
    <clipPath
       id="f">
      <path
         d="m78.357 745.72v-106.86h186.37v106.86"
         id="path5" />
    </clipPath>
    <clipPath
       id="e">
      <path
         d="m9 40h577v762h-577z"
         id="path8" />
    </clipPath>
    <clipPath
       id="d">
      <path
         d="m9 40h577v762h-577z"
         id="path11" />
    </clipPath>
    <clipPath
       id="c">
      <path
         d="m9 40h577v762h-577z"
         id="path14" />
    </clipPath>
    <clipPath
       id="b">
      <path
         d="m9 40h577v762h-577z"
         id="path17" />
    </clipPath>
    <clipPath
       id="a">
      <path
         d="m9 40h577v762h-577z"
         id="path20" />
    </clipPath>
    <clipPath
       id="aa">
      <path
         d="m9 40h577v762h-577z"
         id="path23" />
    </clipPath>
    <clipPath
       id="z">
      <path
         d="m9 40h577v762h-577z"
         id="path26" />
    </clipPath>
    <clipPath
       id="y">
      <path
         d="m9 40h577v762h-577z"
         id="path29" />
    </clipPath>
    <clipPath
       id="x">
      <path
         d="m9 40h577v762h-577z"
         id="path32" />
    </clipPath>
    <clipPath
       id="w">
      <path
         d="m9 40h577v762h-577z"
         id="path35" />
    </clipPath>
    <clipPath
       id="v">
      <path
         d="m9 40h577v762h-577z"
         id="path38" />
    </clipPath>
    <clipPath
       id="u">
      <path
         d="m9 40h577v762h-577z"
         id="path41" />
    </clipPath>
    <clipPath
       id="t">
      <path
         d="m9 40h577v762h-577z"
         id="path44" />
    </clipPath>
    <clipPath
       id="s">
      <path
         d="m9 40h577v762h-577z"
         id="path47" />
    </clipPath>
    <clipPath
       id="r">
      <path
         d="m9 40h577v762h-577z"
         id="path50" />
    </clipPath>
    <clipPath
       id="q">
      <path
         d="m9 40h577v762h-577z"
         id="path53" />
    </clipPath>
    <clipPath
       id="p">
      <path
         d="m9 40h577v762h-577z"
         id="path56" />
    </clipPath>
    <clipPath
       id="o">
      <path
         d="m9 40h577v762h-577z"
         id="path59" />
    </clipPath>
    <clipPath
       id="n">
      <path
         d="m9 40h577v762h-577z"
         id="path62" />
    </clipPath>
    <clipPath
       id="m">
      <path
         d="m9 40h577v762h-577z"
         id="path65" />
    </clipPath>
    <clipPath
       id="l">
      <path
         d="m9 40h577v762h-577z"
         id="path68" />
    </clipPath>
    <clipPath
       id="k">
      <path
         d="m9 40h577v762h-577z"
         id="path71" />
    </clipPath>
    <clipPath
       id="j">
      <path
         d="m9 40h577v762h-577z"
         id="path74" />
    </clipPath>
    <clipPath
       id="i">
      <path
         d="m78.357 745.72v-106.86h186.37v106.86"
         id="path77" />
    </clipPath>
    <clipPath
       id="h">
      <path
         d="m78.357 745.72v-106.86h186.37v106.86"
         id="path80" />
    </clipPath>
  </defs>
  <g
     fill="none"
     stroke-miterlimit="14.336"
     id="g95"
     transform="matrix(1.3333,0,0,-1.3333,-235.98,980.2)"
     style="stroke:#808080">
    <path
       d="m 215.95,713.29 c 3.5911,-2.0731 1.4869,-12.539 -4.6603,-23.185 -6.1462,-10.647 -14.158,-17.703 -17.514,-15.765"
       clip-path="url(#x)"
       stroke-width="0.7303"
       id="path85" />
    <path
       d="m 244.39,676.3 c 3.5902,2.0721 1.4869,12.539 -4.6603,23.185 -6.1462,10.647 -14.159,17.702 -17.515,15.765"
       clip-path="url(#aa)"
       stroke-width="1.9475"
       id="path87" />
    <path
       d="m 249.63,679.11 c 3.5911,2.0731 1.4869,12.539 -4.6603,23.186 -6.1462,10.646 -14.158,17.701 -17.514,15.764"
       clip-path="url(#t)"
       stroke-width="0.7303"
       id="path89" />
    <path
       d="m 196.78,676.3 c -3.5902,2.0721 -1.4869,12.539 4.6603,23.185 6.1462,10.647 14.159,17.702 17.515,15.765"
       clip-path="url(#u)"
       stroke-width="1.9475"
       id="path91" />
    <path
       d="m 191.55,679.11 c -3.5911,2.0731 -1.4869,12.539 4.6603,23.186 6.1462,10.646 14.158,17.701 17.514,15.764 m 29.193,-48.256 c 0,-4.1462 -10.116,-7.5572 -22.41,-7.5572 -12.294,0 -22.41,3.411 -22.41,7.5572 0,4.1452 10.116,7.5562 22.41,7.5562 12.294,0 22.41,-3.411 22.41,-7.5562 z"
       clip-path="url(#s)"
       stroke-width="0.7303"
       id="path93" />
  </g>
  <path
     d="m 203.93,669.8 c 0,-7.2904 -6.0001,-13.29 -13.29,-13.29 -7.2904,0 -13.29,5.9992 -13.29,13.29 0,7.2894 5.9992,13.289 13.29,13.289 7.2894,0 13.29,-5.9992 13.29,-13.289"
     clip-path="url(#c)"
     fill="#ffffff"
     fill-rule="evenodd"
     id="path97"
     transform="matrix(1.3333,0,0,-1.3333,-235.98,980.2)"
     style="stroke:#808080" />
  <path
     d="m 203.93,669.8 c 0,-7.2904 -6.0002,-13.29 -13.29,-13.29 -7.2904,0 -13.29,5.9992 -13.29,13.29 0,7.2894 5.9992,13.289 13.29,13.289 7.2894,0 13.29,-5.9992 13.29,-13.289 z"
     clip-path="url(#v)"
     fill="none"
     stroke-miterlimit="14.336"
     stroke-width="0.7303"
     id="path99"
     transform="matrix(1.3333,0,0,-1.3333,-235.98,980.2)"
     style="stroke:#808080" />
  <path
     d="m 213.91,710 c -6.3137,3.6457 -8.5095,11.841 -4.8648,18.154 3.6457,6.3127 11.841,8.5094 18.153,4.8638 6.3137,-3.6447 8.5095,-11.84 4.8648,-18.153 -3.6447,-6.313 -11.84,-8.5095 -18.153,-4.8648"
     clip-path="url(#d)"
     fill="#ffffff"
     fill-rule="evenodd"
     id="path101"
     transform="matrix(1.3333,0,0,-1.3333,-235.98,980.2)"
     style="stroke:#808080" />
  <path
     d="m 213.91,710 c -6.3137,3.6457 -8.5095,11.841 -4.8648,18.154 3.6457,6.3127 11.841,8.5095 18.153,4.8638 6.3137,-3.6447 8.5095,-11.84 4.8648,-18.153 -3.6447,-6.3137 -11.84,-8.5095 -18.153,-4.8648 z"
     clip-path="url(#w)"
     fill="none"
     stroke-miterlimit="14.336"
     stroke-width="0.7303"
     id="path103"
     transform="matrix(1.3333,0,0,-1.3333,-235.98,980.2)"
     style="stroke:#808080" />
  <path
     d="m 263.66,669.8 c 0,-7.2904 -5.9992,-13.29 -13.289,-13.29 -7.2904,0 -13.29,5.9992 -13.29,13.29 0,7.2894 5.9992,13.289 13.29,13.289 7.2894,0 13.289,-5.9992 13.289,-13.289"
     clip-path="url(#e)"
     fill="#ffffff"
     fill-rule="evenodd"
     id="path105"
     transform="matrix(1.3333,0,0,-1.3333,-235.98,980.2)"
     style="stroke:#808080" />
  <path
     d="m 263.66,669.8 c 0,-7.2904 -5.9992,-13.29 -13.289,-13.29 -7.2904,0 -13.29,5.9992 -13.29,13.29 0,7.2894 5.9992,13.289 13.29,13.289 7.2894,0 13.289,-5.9992 13.289,-13.289 z"
     clip-path="url(#i)"
     fill="none"
     stroke-miterlimit="14.336"
     stroke-width="0.7303"
     id="path107"
     transform="matrix(1.3333,0,0,-1.3333,-235.98,980.2)"
     style="stroke:#808080" />
  <g
     fill="#808080"
     id="g127"
     transform="matrix(1.3333,0,0,-1.3333,-235.98,980.2)"
     style="stroke:#808080">
    <path
       d="m 215.28,707.64 c 0.5024,0.5034 1.1957,0.816 1.9562,0.816 0.7605,0 1.4528,-0.3126 1.9553,-0.816 0.5034,-0.5025 0.816,-1.1958 0.816,-1.9553 0,-0.7605 -0.3126,-1.4538 -0.816,-1.9562 -0.5025,-0.5025 -1.1948,-0.815 -1.9553,-0.815 -0.7605,0 -1.4538,0.3125 -1.9562,0.815 -0.5034,0.5024 -0.816,1.1957 -0.816,1.9562 0,0.7595 0.3126,1.4528 0.816,1.9553"
       clip-path="url(#n)"
       fill-rule="evenodd"
       id="path109" />
    <path
       d="m 215.28,707.64 c 0.50245,0.50343 1.1958,0.816 1.9562,0.816 0.7604,0 1.4528,-0.31257 1.9553,-0.816 0.50342,-0.50244 0.81599,-1.1957 0.81599,-1.9553 0,-0.76049 -0.31257,-1.4538 -0.81599,-1.9562 -0.50245,-0.50245 -1.1948,-0.81502 -1.9553,-0.81502 -0.7605,0 -1.4538,0.31257 -1.9562,0.81502 -0.50342,0.50245 -0.81599,1.1958 -0.81599,1.9562 0,0.75952 0.31257,1.4528 0.81599,1.9553 z"
       clip-path="url(#l)"
       stroke-miterlimit="14.336"
       stroke-width="1.9475"
       id="path111" />
    <path
       d="m 187.69,688.17 c 0.5024,0.5025 1.1948,0.815 1.9552,0.815 0.7605,0 1.4538,-0.3125 1.9563,-0.815 0.5024,-0.5034 0.815,-1.1957 0.815,-1.9562 0,-0.7605 -0.3126,-1.4528 -0.815,-1.9563 -0.5025,-0.5024 -1.1958,-0.815 -1.9563,-0.815 -0.7604,0 -1.4528,0.3126 -1.9552,0.815 -0.5034,0.5035 -0.816,1.1958 -0.816,1.9563 0,0.7605 0.3126,1.4528 0.816,1.9562"
       clip-path="url(#o)"
       fill-rule="evenodd"
       id="path113" />
    <path
       d="m 187.69,688.17 c 0.50245,0.50245 1.1948,0.81502 1.9553,0.81502 0.76049,0 1.4538,-0.31257 1.9562,-0.81502 0.50245,-0.50342 0.81502,-1.1958 0.81502,-1.9562 0,-0.76048 -0.31257,-1.4528 -0.81502,-1.9562 -0.50245,-0.50245 -1.1958,-0.81502 -1.9562,-0.81502 -0.76048,0 -1.4528,0.31257 -1.9553,0.81502 -0.50342,0.50342 -0.81599,1.1958 -0.81599,1.9562 0,0.76049 0.31257,1.4528 0.81599,1.9562 z"
       clip-path="url(#j)"
       stroke-miterlimit="14.336"
       stroke-width="1.9475"
       id="path115" />
    <path
       d="m 193.57,687.19 c 0.5034,0.5034 1.1957,0.816 1.9562,0.816 0.7605,0 1.4528,-0.3126 1.9563,-0.816 0.5024,-0.5025 0.815,-1.1958 0.815,-1.9553 0,-0.7605 -0.3126,-1.4528 -0.815,-1.9562 -0.5035,-0.5025 -1.1958,-0.815 -1.9563,-0.815 -0.7605,0 -1.4528,0.3125 -1.9562,0.815 -0.5034,0.5034 -0.816,1.1957 -0.816,1.9562 0,0.7595 0.3126,1.4528 0.816,1.9553"
       clip-path="url(#p)"
       fill-rule="evenodd"
       id="path117" />
    <path
       d="m 193.57,687.19 c 0.50342,0.50342 1.1958,0.81599 1.9562,0.81599 0.7604,0 1.4528,-0.31257 1.9562,-0.81599 0.50244,-0.50245 0.81501,-1.1958 0.81501,-1.9553 0,-0.76049 -0.31257,-1.4528 -0.81501,-1.9562 -0.50343,-0.50245 -1.1958,-0.81502 -1.9562,-0.81502 -0.7604,0 -1.4528,0.31257 -1.9562,0.81502 -0.50342,0.50342 -0.81599,1.1958 -0.81599,1.9562 0,0.75951 0.31257,1.4528 0.81599,1.9553 z"
       clip-path="url(#k)"
       stroke-miterlimit="14.336"
       stroke-width="1.9475"
       id="path119" />
    <path
       d="m 243.78,687.3 c 0.5034,0.5024 1.1967,0.816 1.9562,0.816 0.7596,0 1.4529,-0.3136 1.9563,-0.816 0.5034,-0.5035 0.816,-1.1958 0.816,-1.9563 0,-0.7595 -0.3126,-1.4528 -0.816,-1.9562 -0.5034,-0.5025 -1.1967,-0.815 -1.9563,-0.815 -0.7595,0 -1.4528,0.3125 -1.9562,0.815 -0.5024,0.5034 -0.816,1.1967 -0.816,1.9562 0,0.7605 0.3136,1.4528 0.816,1.9563"
       clip-path="url(#q)"
       fill-rule="evenodd"
       id="path121" />
    <path
       d="m 243.78,687.3 c 0.50342,0.50245 1.1967,0.81599 1.9562,0.81599 0.75951,0 1.4528,-0.31354 1.9562,-0.81599 0.50342,-0.50342 0.81599,-1.1958 0.81599,-1.9562 0,-0.75951 -0.31257,-1.4528 -0.81599,-1.9562 -0.50343,-0.50244 -1.1967,-0.81501 -1.9562,-0.81501 -0.75952,0 -1.4528,0.31257 -1.9562,0.81501 -0.50245,0.50343 -0.81599,1.1967 -0.81599,1.9562 0,0.76049 0.31354,1.4528 0.81599,1.9562 z"
       clip-path="url(#m)"
       stroke-miterlimit="14.336"
       stroke-width="1.9475"
       id="path123" />
    <path
       d="m 249.65,688.23 c 0.5024,0.5024 1.1957,0.816 1.9553,0.816 0.7614,0 1.4547,-0.3136 1.9562,-0.816 0.5034,-0.5025 0.816,-1.1958 0.816,-1.9553 0,-0.7605 -0.3126,-1.4538 -0.816,-1.9562 -0.5015,-0.5035 -1.1948,-0.816 -1.9562,-0.816 -0.7596,0 -1.4529,0.3125 -1.9553,0.816 -0.5025,0.5024 -0.815,1.1957 -0.815,1.9562 0,0.7595 0.3125,1.4528 0.815,1.9553"
       clip-path="url(#r)"
       fill-rule="evenodd"
       id="path125" />
  </g>
  <path
     d="m 249.65,688.23 c 0.50245,0.50245 1.1958,0.81599 1.9553,0.81599 0.76146,0 1.4548,-0.31354 1.9562,-0.81599 0.50342,-0.50245 0.81599,-1.1958 0.81599,-1.9553 0,-0.76049 -0.31257,-1.4538 -0.81599,-1.9562 -0.50148,-0.50343 -1.1948,-0.816 -1.9562,-0.816 -0.75952,0 -1.4528,0.31257 -1.9553,0.816 -0.50244,0.50244 -0.81501,1.1957 -0.81501,1.9562 0,0.75952 0.31257,1.4528 0.81501,1.9553 z"
     clip-path="url(#h)"
     fill="none"
     stroke-miterlimit="14.336"
     stroke-width="1.9475"
     id="path129"
     transform="matrix(1.3333,0,0,-1.3333,-235.98,980.2)"
     style="stroke:#808080" />
  <g
     fill="#808080"
     id="g139"
     transform="matrix(1.3333,0,0,-1.3333,-235.98,980.2)"
     style="stroke:#808080">
    <path
       d="m 233.22,678 c 0.5024,0.5024 1.1947,0.815 1.9552,0.815 0.7605,0 1.4538,-0.3126 1.9563,-0.815 0.5024,-0.5035 0.815,-1.1958 0.815,-1.9563 0,-0.7605 -0.3126,-1.4528 -0.815,-1.9562 -0.5025,-0.5025 -1.1958,-0.816 -1.9563,-0.816 -0.7605,0 -1.4528,0.3135 -1.9552,0.816 -0.5035,0.5034 -0.816,1.1957 -0.816,1.9562 0,0.7605 0.3125,1.4528 0.816,1.9563"
       clip-path="url(#a)"
       fill-rule="evenodd"
       id="path131" />
    <path
       d="m 233.22,678 c 0.50244,0.50245 1.1948,0.81502 1.9553,0.81502 0.7605,0 1.4538,-0.31257 1.9562,-0.81502 0.50245,-0.50342 0.81502,-1.1958 0.81502,-1.9562 0,-0.76048 -0.31257,-1.4528 -0.81502,-1.9562 -0.50245,-0.50245 -1.1958,-0.816 -1.9562,-0.816 -0.7604,0 -1.4528,0.31355 -1.9553,0.816 -0.50343,0.50342 -0.816,1.1958 -0.816,1.9562 0,0.76049 0.31257,1.4528 0.816,1.9562 z"
       clip-path="url(#z)"
       stroke-miterlimit="14.336"
       stroke-width="1.9475"
       id="path133" />
    <path
       d="m 203.73,666.14 c 0.5034,0.5034 1.1957,0.816 1.9562,0.816 0.7595,0 1.4528,-0.3126 1.9562,-0.816 0.5035,-0.5025 0.816,-1.1958 0.816,-1.9563 0,-0.7595 -0.3125,-1.4528 -0.816,-1.9552 -0.5034,-0.5034 -1.1967,-0.816 -1.9562,-0.816 -0.7605,0 -1.4528,0.3126 -1.9562,0.816 -0.5025,0.5024 -0.8151,1.1957 -0.8151,1.9552 0,0.7605 0.3126,1.4538 0.8151,1.9563"
       clip-path="url(#b)"
       fill-rule="evenodd"
       id="path135" />
    <path
       d="m 203.73,666.14 c 0.50342,0.50342 1.1958,0.81599 1.9562,0.81599 0.75951,0 1.4528,-0.31257 1.9562,-0.81599 0.50342,-0.50245 0.81599,-1.1958 0.81599,-1.9562 0,-0.75951 -0.31257,-1.4528 -0.81599,-1.9553 -0.50343,-0.50343 -1.1967,-0.81599 -1.9562,-0.81599 -0.76049,0 -1.4528,0.31256 -1.9562,0.81599 -0.50245,0.50245 -0.81502,1.1958 -0.81502,1.9553 0,0.76049 0.31257,1.4538 0.81502,1.9562 z"
       clip-path="url(#y)"
       stroke-miterlimit="14.336"
       stroke-width="1.9475"
       id="path137" />
  </g>
  <path
     d="m 182.58,652.02 h 16.229"
     clip-path="url(#g)"
     fill="none"
     stroke-miterlimit="14.336"
     stroke-width="0.7303"
     id="path141"
     transform="matrix(1.3333,0,0,-1.3333,-235.98,980.2)"
     style="stroke:#808080" />
  <path
     d="m 182.58,643.31 h 16.229"
     clip-path="url(#f)"
     fill="none"
     stroke-miterlimit="14.336"
     stroke-width="1.9475"
     id="path143"
     transform="matrix(1.3333,0,0,-1.3333,-235.98,980.2)"
     style="stroke:#808080" />
  <g
     transform="matrix(1.2982875,0,0,-1.2982875,-223.9803,926.868)"
     fill="#808080"
     font-family="Helvetica"
     id="g167">
    <text
       transform="matrix(1,0,0,-1,180.98,643.66)"
       font-size="8.4852px"
       xml:space="preserve"
       id="text149"><tspan
         x="0 5.1751237"
         y="0"
         id="tspan147">LP</tspan></text>
    <text
       transform="matrix(1,0,0,-1,198.26,625.94)"
       font-size="7.273px"
       xml:space="preserve"
       id="text153"><tspan
         x="0 4.4685311 8.5370474 12.612837 17.052277 21.491714 23.531065 27.970503 30.373503 34.44202 40.917896 44.986416 47.389412 51.457928 54.29731 58.736748 60.776096"
         y="0"
         id="tspan151">Fastglutamatergic</tspan></text>
    <text
       transform="matrix(1,0,0,-1,198.26,617)"
       font-size="7.273px"
       xml:space="preserve"
       id="text157"><tspan
         x="0 4.87291 6.9093499 11.360426 19.215265 23.288145 27.724676 32.175751 34.197647 36.21954 40.670616 44.743496 47.579967 52.03104 54.052937"
         y="0"
         id="tspan155">Slowcholinergic</tspan></text>
    <text
       transform="matrix(1,0,0,-1,242.34,644.09)"
       font-size="7.779px"
       xml:space="preserve"
       id="text161"><tspan
         x="0 5.2111521"
         y="0"
         id="tspan159">PY</tspan></text>
    <text
       transform="matrix(1,0,0,-1,207.13,697.38)"
       font-size="6.6677px"
       xml:space="preserve"
       id="text165"><tspan
         x="0 4.6007128 9.4014568 11.268413 15.735772"
         y="0"
         id="tspan163">AB/PD</tspan></text>
  </g>
</svg>
