<?xml version="1.0" encoding="UTF-8" standalone="no"?>
<svg
   version="1.1"
   viewBox="0 0 118.07712 107.35597"
   id="svg171"
   sodipodi:docname="favicon.svg"
   inkscape:version="1.4.2 (unknown)"
   width="118.07713"
   height="107.35599"
   inkscape:export-filename="logo.png"
   inkscape:export-xdpi="95.661537"
   inkscape:export-ydpi="95.661537"
   xmlns:inkscape="http://www.inkscape.org/namespaces/inkscape"
   xmlns:sodipodi="http://sodipodi.sourceforge.net/DTD/sodipodi-0.dtd"
   xmlns="http://www.w3.org/2000/svg"
   xmlns:svg="http://www.w3.org/2000/svg">
  <sodipodi:namedview
     id="namedview173"
     pagecolor="#ffffff"
     bordercolor="#666666"
     borderopacity="1.0"
     inkscape:showpageshadow="2"
     inkscape:pageopacity="0.0"
     inkscape:pagecheckerboard="0"
     inkscape:deskcolor="#d1d1d1"
     showgrid="false"
     inkscape:zoom="2.7159965"
     inkscape:cx="37.002993"
     inkscape:cy="50.073702"
     inkscape:window-width="1920"
     inkscape:window-height="1006"
     inkscape:window-x="0"
     inkscape:window-y="0"
     inkscape:window-maximized="1"
     inkscape:current-layer="svg171" />
  <defs
     id="defs83">
    <clipPath
       id="g">
      <path
         d="M 78.357,745.72 V 638.86 h 186.37 v 106.86"
         id="path2" />
    </clipPath>
    <clipPath
       id="f">
      <path
         d="M 78.357,745.72 V 638.86 h 186.37 v 106.86"
         id="path5" />
    </clipPath>
    <clipPath
       id="e">
      <path
         d="M 9,40 H 586 V 802 H 9 Z"
         id="path8" />
    </clipPath>
    <clipPath
       id="d">
      <path
         d="M 9,40 H 586 V 802 H 9 Z"
         id="path11" />
    </clipPath>
    <clipPath
       id="c">
      <path
         d="M 9,40 H 586 V 802 H 9 Z"
         id="path14" />
    </clipPath>
    <clipPath
       id="b">
      <path
         d="M 9,40 H 586 V 802 H 9 Z"
         id="path17" />
    </clipPath>
    <clipPath
       id="a">
      <path
         d="M 9,40 H 586 V 802 H 9 Z"
         id="path20" />
    </clipPath>
    <clipPath
       id="aa">
      <path
         d="M 9,40 H 586 V 802 H 9 Z"
         id="path23" />
    </clipPath>
    <clipPath
       id="z">
      <path
         d="M 9,40 H 586 V 802 H 9 Z"
         id="path26" />
    </clipPath>
    <clipPath
       id="y">
      <path
         d="M 9,40 H 586 V 802 H 9 Z"
         id="path29" />
    </clipPath>
    <clipPath
       id="x">
      <path
         d="M 9,40 H 586 V 802 H 9 Z"
         id="path32" />
    </clipPath>
    <clipPath
       id="w">
      <path
         d="M 9,40 H 586 V 802 H 9 Z"
         id="path35" />
    </clipPath>
    <clipPath
       id="v">
      <path
         d="M 9,40 H 586 V 802 H 9 Z"
         id="path38" />
    </clipPath>
    <clipPath
       id="u">
      <path
         d="M 9,40 H 586 V 802 H 9 Z"
         id="path41" />
    </clipPath>
    <clipPath
       id="t">
      <path
         d="M 9,40 H 586 V 802 H 9 Z"
         id="path44" />
    </clipPath>
    <clipPath
       id="s">
      <path
         d="M 9,40 H 586 V 802 H 9 Z"
         id="path47" />
    </clipPath>
    <clipPath
       id="r">
      <path
         d="M 9,40 H 586 V 802 H 9 Z"
         id="path50" />
    </clipPath>
    <clipPath
       id="q">
      <path
         d="M 9,40 H 586 V 802 H 9 Z"
         id="path53" />
    </clipPath>
    <clipPath
       id="p">
      <path
         d="M 9,40 H 586 V 802 H 9 Z"
         id="path56" />
    </clipPath>
    <clipPath
       id="o">
      <path
         d="M 9,40 H 586 V 802 H 9 Z"
         id="path59" />
    </clipPath>
    <clipPath
       id="n">
      <path
         d="M 9,40 H 586 V 802 H 9 Z"
         id="path62" />
    </clipPath>
    <clipPath
       id="m">
      <path
         d="M 9,40 H 586 V 802 H 9 Z"
         id="path65" />
    </clipPath>
    <clipPath
       id="l">
      <path
         d="M 9,40 H 586 V 802 H 9 Z"
         id="path68" />
    </clipPath>
    <clipPath
       id="k">
      <path
         d="M 9,40 H 586 V 802 H 9 Z"
         id="path71" />
    </clipPath>
    <clipPath
       id="j">
      <path
         d="M 9,40 H 586 V 802 H 9 Z"
         id="path74" />
    </clipPath>
    <clipPath
       id="i">
      <path
         d="M 78.357,745.72 V 638.86 h 186.37 v 106.86"
         id="path77" />
    </clipPath>
    <clipPath
       id="h">
      <path
         d="M 78.357,745.72 V 638.86 h 186.37 v 106.86"
         id="path80" />
    </clipPath>
  </defs>
  <path
     d="m 215.95,713.29 c 3.5911,-2.0731 1.4869,-12.539 -4.6603,-23.185 -6.1462,-10.647 -14.158,-17.703 -17.514,-15.765"
     clip-path="url(#x)"
     stroke-width="0.7303"
     id="path85"
     style="fill:none;stroke:#000000;stroke-width:2.25006;stroke-miterlimit:14.336;stroke-dasharray:none"
     transform="matrix(1.3333,0,0,-1.3333,-234.96075,981.18077)" />
  <path
     d="m 244.39,676.3 c 3.5902,2.0721 1.4869,12.539 -4.6603,23.185 -6.1462,10.647 -14.159,17.702 -17.515,15.765"
     clip-path="url(#aa)"
     stroke-width="1.9475"
     id="path87"
     style="fill:none;stroke:#000000;stroke-width:5.62514;stroke-miterlimit:14.336;stroke-dasharray:none"
     transform="matrix(1.3333,0,0,-1.3333,-234.96075,981.18077)" />
  <path
     d="m 249.63,679.11 c 3.5911,2.0731 1.4869,12.539 -4.6603,23.186 -6.1462,10.646 -14.158,17.701 -17.514,15.764"
     clip-path="url(#t)"
     stroke-width="0.7303"
     id="path89"
     style="fill:none;stroke:#000000;stroke-width:2.25006;stroke-miterlimit:14.336;stroke-dasharray:none"
     transform="matrix(1.3333,0,0,-1.3333,-234.96075,981.18077)" />
  <path
     d="m 196.78,676.3 c -3.5902,2.0721 -1.4869,12.539 4.6603,23.185 6.1462,10.647 14.159,17.702 17.515,15.765"
     clip-path="url(#u)"
     stroke-width="1.9475"
     id="path91"
     style="fill:none;stroke:#000000;stroke-width:5.62514;stroke-miterlimit:14.336;stroke-dasharray:none"
     transform="matrix(1.3333,0,0,-1.3333,-234.96075,981.18077)" />
  <path
     d="m 191.55,679.11 c -3.5911,2.0731 -1.4869,12.539 4.6603,23.186 6.1462,10.646 14.158,17.701 17.514,15.764 m 29.193,-48.256 c 0,-4.1462 -10.116,-7.5572 -22.41,-7.5572 -12.294,0 -22.41,3.411 -22.41,7.5572 0,4.1452 10.116,7.5562 22.41,7.5562 12.294,0 22.41,-3.411 22.41,-7.5562 z"
     clip-path="url(#s)"
     stroke-width="0.7303"
     id="path93"
     style="fill:none;stroke:#000000;stroke-width:2.25006;stroke-miterlimit:14.336;stroke-dasharray:none"
     transform="matrix(1.3333,0,0,-1.3333,-234.96075,981.18077)" />
  <path
     d="m 203.93,669.8 c 0,-7.2904 -6.0001,-13.29 -13.29,-13.29 -7.2904,0 -13.29,5.9992 -13.29,13.29 0,7.2894 5.9992,13.289 13.29,13.289 7.2894,0 13.29,-5.9992 13.29,-13.289"
     clip-path="url(#c)"
     fill="#ffffff"
     fill-rule="evenodd"
     id="path97"
     transform="matrix(1.1820344,0,0,-1.1820344,-206.41743,880.15706)"
     style="stroke:#000000;stroke-width:5.07599;stroke-dasharray:none" />
  <path
     d="m 213.91,710 c -6.3137,3.6457 -8.5095,11.841 -4.8648,18.154 3.6457,6.3127 11.841,8.5095 18.153,4.8638 6.3137,-3.6447 8.5095,-11.84 4.8648,-18.153 -3.6447,-6.3137 -11.84,-8.5095 -18.153,-4.8648 z"
     clip-path="url(#w)"
     fill="none"
     stroke-miterlimit="14.336"
     stroke-width="0.7303"
     id="path103"
     transform="matrix(1.1820344,0,0,-1.1820344,-198.41743,872.15704)"
     style="fill:#ffffff;stroke:#000000;stroke-width:5.07599;stroke-dasharray:none" />
  <path
     d="m 263.66,669.8 c 0,-7.2904 -5.9992,-13.29 -13.289,-13.29 -7.2904,0 -13.29,5.9992 -13.29,13.29 0,7.2894 5.9992,13.289 13.29,13.289 7.2894,0 13.289,-5.9992 13.289,-13.289"
     clip-path="url(#e)"
     fill="#ffffff"
     fill-rule="evenodd"
     id="path105"
     transform="matrix(1.1820344,0,0,-1.1820344,-196.41743,882.15704)"
     style="stroke:#000000;stroke-width:5.07599;stroke-dasharray:none" />
  <g
     fill="#808080"
     id="g127"
     transform="matrix(1.3333,0,0,-1.3333,-234.96075,981.18077)"
     style="fill:#000000;stroke:#000000">
    <path
       d="m 215.28,707.64 c 0.5024,0.5034 1.1957,0.816 1.9562,0.816 0.7605,0 1.4528,-0.3126 1.9553,-0.816 0.5034,-0.5025 0.816,-1.1958 0.816,-1.9553 0,-0.7605 -0.3126,-1.4538 -0.816,-1.9562 -0.5025,-0.5025 -1.1948,-0.815 -1.9553,-0.815 -0.7605,0 -1.4538,0.3125 -1.9562,0.815 -0.5034,0.5024 -0.816,1.1957 -0.816,1.9562 0,0.7595 0.3126,1.4528 0.816,1.9553"
       clip-path="url(#n)"
       fill-rule="evenodd"
       id="path109"
       style="fill:#000000;stroke:#000000" />
    <path
       d="m 215.28,707.64 c 0.50245,0.50343 1.1958,0.816 1.9562,0.816 0.7604,0 1.4528,-0.31257 1.9553,-0.816 0.50342,-0.50244 0.81599,-1.1957 0.81599,-1.9553 0,-0.76049 -0.31257,-1.4538 -0.81599,-1.9562 -0.50245,-0.50245 -1.1948,-0.81502 -1.9553,-0.81502 -0.7605,0 -1.4538,0.31257 -1.9562,0.81502 -0.50342,0.50245 -0.81599,1.1958 -0.81599,1.9562 0,0.75952 0.31257,1.4528 0.81599,1.9553 z"
       clip-path="url(#l)"
       stroke-miterlimit="14.336"
       stroke-width="1.9475"
       id="path111"
       style="fill:#000000;stroke:#000000" />
    <path
       d="m 187.69,688.17 c 0.5024,0.5025 1.1948,0.815 1.9552,0.815 0.7605,0 1.4538,-0.3125 1.9563,-0.815 0.5024,-0.5034 0.815,-1.1957 0.815,-1.9562 0,-0.7605 -0.3126,-1.4528 -0.815,-1.9563 -0.5025,-0.5024 -1.1958,-0.815 -1.9563,-0.815 -0.7604,0 -1.4528,0.3126 -1.9552,0.815 -0.5034,0.5035 -0.816,1.1958 -0.816,1.9563 0,0.7605 0.3126,1.4528 0.816,1.9562"
       clip-path="url(#o)"
       fill-rule="evenodd"
       id="path113"
       style="fill:#000000;stroke:#000000" />
    <path
       d="m 187.69,688.17 c 0.50245,0.50245 1.1948,0.81502 1.9553,0.81502 0.76049,0 1.4538,-0.31257 1.9562,-0.81502 0.50245,-0.50342 0.81502,-1.1958 0.81502,-1.9562 0,-0.76048 -0.31257,-1.4528 -0.81502,-1.9562 -0.50245,-0.50245 -1.1958,-0.81502 -1.9562,-0.81502 -0.76048,0 -1.4528,0.31257 -1.9553,0.81502 -0.50342,0.50342 -0.81599,1.1958 -0.81599,1.9562 0,0.76049 0.31257,1.4528 0.81599,1.9562 z"
       clip-path="url(#j)"
       stroke-miterlimit="14.336"
       stroke-width="1.9475"
       id="path115"
       style="fill:#000000;stroke:#000000" />
    <path
       d="m 193.57,687.19 c 0.5034,0.5034 1.1957,0.816 1.9562,0.816 0.7605,0 1.4528,-0.3126 1.9563,-0.816 0.5024,-0.5025 0.815,-1.1958 0.815,-1.9553 0,-0.7605 -0.3126,-1.4528 -0.815,-1.9562 -0.5035,-0.5025 -1.1958,-0.815 -1.9563,-0.815 -0.7605,0 -1.4528,0.3125 -1.9562,0.815 -0.5034,0.5034 -0.816,1.1957 -0.816,1.9562 0,0.7595 0.3126,1.4528 0.816,1.9553"
       clip-path="url(#p)"
       fill-rule="evenodd"
       id="path117"
       style="fill:#000000;stroke:#000000" />
    <path
       d="m 193.57,687.19 c 0.50342,0.50342 1.1958,0.81599 1.9562,0.81599 0.7604,0 1.4528,-0.31257 1.9562,-0.81599 0.50244,-0.50245 0.81501,-1.1958 0.81501,-1.9553 0,-0.76049 -0.31257,-1.4528 -0.81501,-1.9562 -0.50343,-0.50245 -1.1958,-0.81502 -1.9562,-0.81502 -0.7604,0 -1.4528,0.31257 -1.9562,0.81502 -0.50342,0.50342 -0.81599,1.1958 -0.81599,1.9562 0,0.75951 0.31257,1.4528 0.81599,1.9553 z"
       clip-path="url(#k)"
       stroke-miterlimit="14.336"
       stroke-width="1.9475"
       id="path119"
       style="fill:#000000;stroke:#000000" />
    <path
       d="m 243.78,687.3 c 0.5034,0.5024 1.1967,0.816 1.9562,0.816 0.7596,0 1.4529,-0.3136 1.9563,-0.816 0.5034,-0.5035 0.816,-1.1958 0.816,-1.9563 0,-0.7595 -0.3126,-1.4528 -0.816,-1.9562 -0.5034,-0.5025 -1.1967,-0.815 -1.9563,-0.815 -0.7595,0 -1.4528,0.3125 -1.9562,0.815 -0.5024,0.5034 -0.816,1.1967 -0.816,1.9562 0,0.7605 0.3136,1.4528 0.816,1.9563"
       clip-path="url(#q)"
       fill-rule="evenodd"
       id="path121"
       style="fill:#000000;stroke:#000000" />
    <path
       d="m 243.78,687.3 c 0.50342,0.50245 1.1967,0.81599 1.9562,0.81599 0.75951,0 1.4528,-0.31354 1.9562,-0.81599 0.50342,-0.50342 0.81599,-1.1958 0.81599,-1.9562 0,-0.75951 -0.31257,-1.4528 -0.81599,-1.9562 -0.50343,-0.50244 -1.1967,-0.81501 -1.9562,-0.81501 -0.75952,0 -1.4528,0.31257 -1.9562,0.81501 -0.50245,0.50343 -0.81599,1.1967 -0.81599,1.9562 0,0.76049 0.31354,1.4528 0.81599,1.9562 z"
       clip-path="url(#m)"
       stroke-miterlimit="14.336"
       stroke-width="1.9475"
       id="path123"
       style="fill:#000000;stroke:#000000" />
    <path
       d="m 249.65,688.23 c 0.5024,0.5024 1.1957,0.816 1.9553,0.816 0.7614,0 1.4547,-0.3136 1.9562,-0.816 0.5034,-0.5025 0.816,-1.1958 0.816,-1.9553 0,-0.7605 -0.3126,-1.4538 -0.816,-1.9562 -0.5015,-0.5035 -1.1948,-0.816 -1.9562,-0.816 -0.7596,0 -1.4529,0.3125 -1.9553,0.816 -0.5025,0.5024 -0.815,1.1957 -0.815,1.9562 0,0.7595 0.3125,1.4528 0.815,1.9553"
       clip-path="url(#r)"
       fill-rule="evenodd"
       id="path125"
       style="fill:#000000;stroke:#000000" />
  </g>
  <path
     d="m 249.65,688.23 c 0.50245,0.50245 1.1958,0.81599 1.9553,0.81599 0.76146,0 1.4548,-0.31354 1.9562,-0.81599 0.50342,-0.50245 0.81599,-1.1958 0.81599,-1.9553 0,-0.76049 -0.31257,-1.4538 -0.81599,-1.9562 -0.50148,-0.50343 -1.1948,-0.816 -1.9562,-0.816 -0.75952,0 -1.4528,0.31257 -1.9553,0.816 -0.50244,0.50244 -0.81501,1.1957 -0.81501,1.9562 0,0.75952 0.31257,1.4528 0.81501,1.9553 z"
     clip-path="url(#h)"
     fill="none"
     stroke-miterlimit="14.336"
     stroke-width="1.9475"
     id="path129"
     transform="matrix(1.3333,0,0,-1.3333,-234.96075,981.18077)"
     style="stroke:#000000" />
  <g
     fill="#808080"
     id="g139"
     transform="matrix(1.3333,0,0,-1.3333,-234.96075,981.18072)"
     style="fill:#000000;stroke:#000000">
    <path
       d="m 233.22,678 c 0.5024,0.5024 1.1947,0.815 1.9552,0.815 0.7605,0 1.4538,-0.3126 1.9563,-0.815 0.5024,-0.5035 0.815,-1.1958 0.815,-1.9563 0,-0.7605 -0.3126,-1.4528 -0.815,-1.9562 -0.5025,-0.5025 -1.1958,-0.816 -1.9563,-0.816 -0.7605,0 -1.4528,0.3135 -1.9552,0.816 -0.5035,0.5034 -0.816,1.1957 -0.816,1.9562 0,0.7605 0.3125,1.4528 0.816,1.9563"
       clip-path="url(#a)"
       fill-rule="evenodd"
       id="path131"
       style="fill:#000000;stroke:#000000" />
    <path
       d="m 233.22,678 c 0.50244,0.50245 1.1948,0.81502 1.9553,0.81502 0.7605,0 1.4538,-0.31257 1.9562,-0.81502 0.50245,-0.50342 0.81502,-1.1958 0.81502,-1.9562 0,-0.76048 -0.31257,-1.4528 -0.81502,-1.9562 -0.50245,-0.50245 -1.1958,-0.816 -1.9562,-0.816 -0.7604,0 -1.4528,0.31355 -1.9553,0.816 -0.50343,0.50342 -0.816,1.1958 -0.816,1.9562 0,0.76049 0.31257,1.4528 0.816,1.9562 z"
       clip-path="url(#z)"
       stroke-miterlimit="14.336"
       stroke-width="1.9475"
       id="path133"
       style="fill:#000000;stroke:#000000" />
    <path
       d="m 203.73,666.14 c 0.5034,0.5034 1.1957,0.816 1.9562,0.816 0.7595,0 1.4528,-0.3126 1.9562,-0.816 0.5035,-0.5025 0.816,-1.1958 0.816,-1.9563 0,-0.7595 -0.3125,-1.4528 -0.816,-1.9552 -0.5034,-0.5034 -1.1967,-0.816 -1.9562,-0.816 -0.7605,0 -1.4528,0.3126 -1.9562,0.816 -0.5025,0.5024 -0.8151,1.1957 -0.8151,1.9552 0,0.7605 0.3126,1.4538 0.8151,1.9563"
       clip-path="url(#b)"
       fill-rule="evenodd"
       id="path135"
       style="fill:#000000;stroke:#000000" />
    <path
       d="m 203.73,666.14 c 0.50342,0.50342 1.1958,0.81599 1.9562,0.81599 0.75951,0 1.4528,-0.31257 1.9562,-0.81599 0.50342,-0.50245 0.81599,-1.1958 0.81599,-1.9562 0,-0.75951 -0.31257,-1.4528 -0.81599,-1.9553 -0.50343,-0.50343 -1.1967,-0.81599 -1.9562,-0.81599 -0.76049,0 -1.4528,0.31256 -1.9562,0.81599 -0.50245,0.50245 -0.81502,1.1958 -0.81502,1.9553 0,0.76049 0.31257,1.4538 0.81502,1.9562 z"
       clip-path="url(#y)"
       stroke-miterlimit="14.336"
       stroke-width="1.9475"
       id="path137"
       style="fill:#000000;stroke:#000000" />
  </g>
</svg>
